<svg xmlns="http://www.w3.org/2000/svg" width="13" height="17.245" viewBox="0 0 13 17.245">
  <g id="interface" transform="translate(-54.796 0.5)">
    <g id="Group_628" data-name="Group 628" transform="translate(55.296)">
      <path id="Path_838" data-name="Path 838" d="M65.727,0H56.865A1.573,1.573,0,0,0,55.3,1.569V15.255a.981.981,0,0,0,.549.882.994.994,0,0,0,1.039-.118L56.9,16,61.3,12.294,65.688,16l.02.02a1,1,0,0,0,.608.216.894.894,0,0,0,.431-.118.981.981,0,0,0,.549-.882V1.569A1.573,1.573,0,0,0,65.727,0Z" transform="translate(-55.296)" fill="#707070" stroke="#707070" stroke-width="1"/>
    </g>
  </g>
</svg>
