<svg xmlns="http://www.w3.org/2000/svg" width="11" height="11" viewBox="0 0 11 11">
  <g id="Group_419" data-name="Group 419" transform="translate(-14 -6)">
    <path id="svg_1" d="M11.318,3.683A5.769,5.769,0,0,0,9.309,1.692L10,1a2.469,2.469,0,0,1,1.5.5A2.469,2.469,0,0,1,12,3ZM5.5,9.5h-2v-2l.24-.24a4.187,4.187,0,0,1,2,2Zm5.24-5.24L6.317,8.682a5.805,5.805,0,0,0-.874-1.114,5.776,5.776,0,0,0-1.135-.877L8.74,2.26a4.181,4.181,0,0,1,2,2ZM2.5,2.5v8h8V7L12,5.481V11a1,1,0,0,1-1,1H2a1,1,0,0,1-1-1V2A1,1,0,0,1,2,1H7.5L6,2.5H2.5Z" transform="translate(13 5)" fill="#8d8888"/>
  </g>
</svg>
