<?xml version="1.0"?>
<svg xmlns="http://www.w3.org/2000/svg" xmlns:xlink="http://www.w3.org/1999/xlink" version="1.1" id="Capa_1" x="0px" y="0px" viewBox="0 0 295.428 295.428" style="enable-background:new 0 0 295.428 295.428;" xml:space="preserve" width="20px" height="20px" class=""><g><path d="M147.714,0C66.264,0,0,66.264,0,147.714s66.264,147.714,147.714,147.714c81.45,0,147.714-66.264,147.714-147.714  S229.164,0,147.714,0z M147.714,232.68c-8.284,0-15-6.716-15-15c0-8.284,6.716-15,15-15c8.284,0,15,6.716,15,15  C162.714,225.964,155.998,232.68,147.714,232.68z M162.714,155.68c0,8.284-6.716,15-15,15c-8.284,0-15-6.716-15-15v-79  c0-8.284,6.716-15,15-15c8.284,0,15,6.716,15,15V155.68z" data-original="#000000" class="active-path" data-old_color="#000000" fill="#FFA600"/></g> </svg>
